<svg xmlns="http://www.w3.org/2000/svg" width="600" height="400" viewBox="0 0 600 400" style="background:#ffffff">
  <!-- Ground level -->
  <line x1="100" y1="350" x2="500" y2="350" stroke="#475569" stroke-width="3"/>

  <!-- Ball thrown up -->
  <circle cx="200" cy="335" r="12" fill="#2563eb"/>
  <path d="M 200 315 L 200 240 M 195 255 L 200 240 L 205 255" stroke="#2563eb" stroke-width="3" fill="none"/>
  <text x="175" y="280" font-family="sans-serif" font-size="16" font-weight="bold" fill="#2563eb">u</text>

  <!-- Maximum Height path -->
  <path d="M 220 335 C 260 200, 260 100, 300 100 C 340 100, 340 200, 380 335" fill="none" stroke="#94a3b8" stroke-dasharray="4" stroke-width="2"/>

  <!-- Ball at peak -->
  <circle cx="300" cy="100" r="12" fill="#ef4444"/>
  <text x="293" y="80" font-family="sans-serif" font-size="14" font-weight="bold" fill="#ef4444">v = 0</text>

  <!-- Acceleration g -->
  <path d="M 420 150 L 420 210 M 415 195 L 420 210 L 425 195" stroke="#ef4444" stroke-width="3" fill="none"/>
  <text x="435" y="185" font-family="sans-serif" font-size="16" font-weight="bold" fill="#ef4444">g</text>

  <!-- Height H label -->
  <line x1="280" y1="100" x2="280" y2="350" stroke="#059669" stroke-width="2"/>
  <line x1="275" y1="100" x2="285" y2="100" stroke="#059669" stroke-width="2"/>
  <line x1="275" y1="350" x2="285" y2="350" stroke="#059669" stroke-width="2"/>
  <text x="250" y="230" font-family="sans-serif" font-size="16" font-weight="bold" fill="#059669">H_max</text>
</svg>